<svg xmlns="http://www.w3.org/2000/svg" width="1600" height="900" viewBox="0 0 1600 900">
<defs><marker id="arrow" markerWidth="10" markerHeight="10" refX="9" refY="3" orient="auto" markerUnits="strokeWidth"><path d="M0,0 L0,6 L9,3 z" fill="#2d65a4" /></marker></defs>
<rect width="100%" height="100%" fill="#ffffff"/>
<rect x="80" y="130" width="220" height="80" rx="14" fill="#f4f7fa" stroke="#2d65a4" stroke-width="3"/>
<text x="190.0" y="158.0" text-anchor="middle" font-family="Segoe UI, Arial" font-size="21" font-weight="600" fill="#1c222a">Document</text>
<text x="190.0" y="183.0" text-anchor="middle" font-family="Segoe UI, Arial" font-size="21" font-weight="600" fill="#1c222a">Image</text>
<rect x="80" y="270" width="220" height="80" rx="14" fill="#f4f7fa" stroke="#2d65a4" stroke-width="3"/>
<text x="190.0" y="310.0" text-anchor="middle" font-family="Segoe UI, Arial" font-size="21" font-weight="600" fill="#1c222a">Question</text>
<rect x="80" y="410" width="220" height="80" rx="14" fill="#f4f7fa" stroke="#27897f" stroke-width="3"/>
<text x="190.0" y="438.0" text-anchor="middle" font-family="Segoe UI, Arial" font-size="21" font-weight="600" fill="#1c222a">Azure OCR</text>
<text x="190.0" y="463.0" text-anchor="middle" font-family="Segoe UI, Arial" font-size="21" font-weight="600" fill="#1c222a">JSON</text>
<rect x="450" y="165" width="260" height="150" rx="14" fill="#eef4ff" stroke="#2d65a4" stroke-width="3"/>
<text x="580.0" y="228.0" text-anchor="middle" font-family="Segoe UI, Arial" font-size="21" font-weight="600" fill="#1c222a">Baseline</text>
<text x="580.0" y="253.0" text-anchor="middle" font-family="Segoe UI, Arial" font-size="21" font-weight="600" fill="#1c222a">Phi-3.5-Vision</text>
<rect x="450" y="520" width="190" height="80" rx="14" fill="#fff5e6" stroke="#dd852f" stroke-width="3"/>
<text x="545.0" y="560.0" text-anchor="middle" font-family="Segoe UI, Arial" font-size="21" font-weight="600" fill="#1c222a">Router</text>
<rect x="740" y="520" width="220" height="80" rx="14" fill="#eef8f6" stroke="#27897f" stroke-width="3"/>
<text x="850.0" y="548.0" text-anchor="middle" font-family="Segoe UI, Arial" font-size="21" font-weight="600" fill="#1c222a">Hybrid</text>
<text x="850.0" y="573.0" text-anchor="middle" font-family="Segoe UI, Arial" font-size="21" font-weight="600" fill="#1c222a">Retrieval</text>
<rect x="1030" y="520" width="220" height="80" rx="14" fill="#eef8f6" stroke="#27897f" stroke-width="3"/>
<text x="1140.0" y="548.0" text-anchor="middle" font-family="Segoe UI, Arial" font-size="21" font-weight="600" fill="#1c222a">Spatial</text>
<text x="1140.0" y="573.0" text-anchor="middle" font-family="Segoe UI, Arial" font-size="21" font-weight="600" fill="#1c222a">Expansion</text>
<rect x="740" y="680" width="220" height="80" rx="14" fill="#eef8f6" stroke="#27897f" stroke-width="3"/>
<text x="850.0" y="708.0" text-anchor="middle" font-family="Segoe UI, Arial" font-size="21" font-weight="600" fill="#1c222a">Format +</text>
<text x="850.0" y="733.0" text-anchor="middle" font-family="Segoe UI, Arial" font-size="21" font-weight="600" fill="#1c222a">Sanitize</text>
<rect x="1030" y="680" width="220" height="80" rx="14" fill="#fff5e6" stroke="#dd852f" stroke-width="3"/>
<text x="1140.0" y="708.0" text-anchor="middle" font-family="Segoe UI, Arial" font-size="21" font-weight="600" fill="#1c222a">Quality</text>
<text x="1140.0" y="733.0" text-anchor="middle" font-family="Segoe UI, Arial" font-size="21" font-weight="600" fill="#1c222a">Gate</text>
<rect x="1340" y="560" width="210" height="160" rx="14" fill="#eef4ff" stroke="#2d65a4" stroke-width="3"/>
<text x="1445.0" y="628.0" text-anchor="middle" font-family="Segoe UI, Arial" font-size="21" font-weight="600" fill="#1c222a">Adaptive</text>
<text x="1445.0" y="653.0" text-anchor="middle" font-family="Segoe UI, Arial" font-size="21" font-weight="600" fill="#1c222a">Phi-3.5-Vision</text>
<line x1="300" y1="170" x2="450" y2="210" stroke="#2d65a4" stroke-width="4" marker-end="url(#arrow)"/>
<line x1="300" y1="310" x2="450" y2="270" stroke="#2d65a4" stroke-width="4" marker-end="url(#arrow)"/>
<line x1="710" y1="240" x2="850" y2="240" stroke="#2d65a4" stroke-width="4" marker-end="url(#arrow)"/>
<text x="780.0" y="232.0" text-anchor="middle" font-family="Segoe UI, Arial" font-size="18" fill="#5e6975">Answer</text>
<line x1="300" y1="170" x2="450" y2="545" stroke="#2d65a4" stroke-width="4" marker-end="url(#arrow)"/>
<line x1="300" y1="310" x2="450" y2="570" stroke="#2d65a4" stroke-width="4" marker-end="url(#arrow)"/>
<line x1="300" y1="450" x2="740" y2="545" stroke="#2d65a4" stroke-width="4" marker-end="url(#arrow)"/>
<line x1="640" y1="560" x2="740" y2="560" stroke="#2d65a4" stroke-width="4" marker-end="url(#arrow)"/>
<text x="690.0" y="552.0" text-anchor="middle" font-family="Segoe UI, Arial" font-size="18" fill="#5e6975">OCR path</text>
<line x1="960" y1="560" x2="1030" y2="560" stroke="#2d65a4" stroke-width="4" marker-end="url(#arrow)"/>
<line x1="1140" y1="600" x2="850" y2="680" stroke="#2d65a4" stroke-width="4" marker-end="url(#arrow)"/>
<line x1="960" y1="720" x2="1030" y2="720" stroke="#2d65a4" stroke-width="4" marker-end="url(#arrow)"/>
<line x1="1250" y1="720" x2="1340" y2="640" stroke="#2d65a4" stroke-width="4" marker-end="url(#arrow)"/>
<text x="1295.0" y="672.0" text-anchor="middle" font-family="Segoe UI, Arial" font-size="18" fill="#5e6975">pass/fail</text>
<line x1="300" y1="170" x2="1340" y2="600" stroke="#2d65a4" stroke-width="4" marker-end="url(#arrow)"/>
<line x1="300" y1="310" x2="1340" y2="680" stroke="#2d65a4" stroke-width="4" marker-end="url(#arrow)"/>
<line x1="640" y1="590" x2="1340" y2="700" stroke="#2d65a4" stroke-width="4" marker-end="url(#arrow)"/>
<text x="990.0" y="637.0" text-anchor="middle" font-family="Segoe UI, Arial" font-size="18" fill="#5e6975">vision only</text>
<text x="70" y="65" font-family="Segoe UI, Arial" font-size="24" font-weight="700" fill="#1c304a">Overall Architecture: Baseline vs V2 Adaptive Path</text>
</svg>